<?xml version="1.0" standalone="no"?>
<!DOCTYPE svg PUBLIC "-//W3C//DTD SVG 20010904//EN"
 "http://www.w3.org/TR/2001/REC-SVG-20010904/DTD/svg10.dtd">
<svg version="1.0" xmlns="http://www.w3.org/2000/svg"
 width="317.000000pt" height="317.000000pt" viewBox="0 0 317.000000 317.000000"
 preserveAspectRatio="xMidYMid meet">
<metadata>
Created by potrace 1.14, written by Peter Selinger 2001-2017
</metadata>
<g transform="translate(0.000000,317.000000) scale(0.100000,-0.100000)"
fill="#000000" stroke="none">
<path d="M1597 3078 c-9 -5 -17 -19 -17 -32 0 -13 -6 -29 -14 -35 -31 -26 -4
-65 39 -58 17 3 38 2 45 -3 7 -4 20 -6 28 -2 12 4 10 7 -7 13 -21 8 -21 10 -5
34 16 24 15 25 -5 25 -14 0 -19 -5 -15 -15 10 -24 -12 -17 -30 9 -24 37 -23
49 4 56 19 4 21 7 9 12 -8 3 -23 2 -32 -4z m23 -109 c0 -5 -9 -9 -20 -9 -24 0
-35 22 -25 48 6 15 8 15 26 -7 10 -13 19 -27 19 -32z"/>
<path d="M1376 3071 c-14 -5 -16 -10 -8 -15 20 -12 14 -43 -10 -50 -44 -11
-51 -8 -46 24 4 26 1 30 -18 30 -21 0 -22 -2 -9 -26 7 -14 12 -46 11 -70 0
-24 1 -44 4 -43 14 2 43 18 34 18 -7 1 -14 12 -16 26 -4 18 -1 25 11 25 9 0
27 3 40 7 22 6 23 4 19 -25 -4 -28 -2 -32 19 -32 22 0 23 1 9 23 -8 12 -13 43
-13 70 1 26 0 47 -3 46 -3 0 -14 -4 -24 -8z"/>
<path d="M1854 3051 c9 -14 -24 -111 -37 -111 -7 0 -6 -4 3 -10 19 -12 33 -13
26 -1 -3 4 1 28 8 52 l13 44 8 -53 c4 -29 11 -54 14 -57 4 -2 16 8 27 22 53
72 54 72 43 23 -6 -24 -15 -47 -20 -51 -6 -4 -4 -9 6 -13 28 -10 30 -8 31 44
1 28 7 56 13 64 11 13 5 26 -10 26 -4 0 -23 -21 -41 -46 l-32 -46 -8 29 c-4
15 -9 37 -11 48 -3 26 -16 45 -28 45 -6 0 -8 -4 -5 -9z"/>
<path d="M1070 2996 c-21 -8 -36 -20 -38 -32 -3 -18 -2 -18 8 -1 20 32 39 19
57 -42 17 -53 21 -58 37 -49 14 8 15 12 6 18 -7 5 -21 29 -30 53 -15 40 -16
47 -3 51 8 4 20 3 25 -1 7 -3 8 -1 4 5 -9 15 -21 14 -66 -2z"/>
<path d="M2130 2920 c-29 -29 -26 -74 7 -100 64 -50 142 31 92 95 -25 31 -71
33 -99 5z m82 -7 c39 -45 -21 -124 -64 -85 -22 19 -23 51 -2 80 18 26 45 28
66 5z"/>
<path d="M863 2900 c-32 -13 -56 -54 -48 -82 18 -59 70 -75 119 -37 24 19 25
23 13 38 -8 9 -12 22 -10 29 4 10 -1 10 -22 0 -24 -11 -25 -13 -7 -19 29 -11
34 -35 8 -47 -24 -11 -52 -1 -73 26 -30 37 -2 84 44 76 23 -4 25 -3 13 11 -7
8 -13 15 -14 14 0 0 -11 -4 -23 -9z"/>
<path d="M2390 2806 c0 -8 -17 -33 -37 -54 l-38 -39 27 -21 c14 -12 35 -22 47
-22 26 0 45 32 29 48 -9 9 -8 12 5 12 9 0 21 8 26 19 8 14 5 23 -12 38 -34 31
-47 36 -47 19z m37 -27 c15 -15 5 -39 -16 -39 -26 0 -31 10 -18 31 14 22 19
23 34 8z m-27 -55 c11 -12 11 -18 -2 -30 -16 -16 -48 -9 -48 10 0 13 20 36 31
36 4 0 12 -7 19 -16z"/>
<path d="M650 2745 c-10 -12 -10 -15 2 -15 8 0 27 -13 43 -30 l28 -29 -54 6
c-81 10 -92 9 -97 -6 -2 -8 0 -11 5 -8 11 7 73 -65 73 -84 0 -9 3 -9 14 0 12
10 7 18 -27 50 l-40 38 67 -9 c37 -5 71 -8 76 -6 4 2 -12 26 -35 55 -36 44
-45 50 -55 38z"/>
<path d="M2579 2649 c0 -8 -20 -30 -43 -49 -24 -19 -41 -41 -38 -47 6 -18 22
-16 22 2 0 8 3 15 8 15 4 1 24 16 45 34 32 29 35 35 22 46 -12 10 -15 10 -16
-1z"/>
<path d="M432 2514 c-13 -20 -21 -38 -18 -42 3 -3 6 -2 6 2 0 8 44 -22 76 -52
l22 -21 25 36 c15 20 23 41 20 46 -3 5 -12 -5 -20 -22 -18 -36 -24 -38 -47
-12 -17 19 -17 20 5 31 17 10 19 14 8 21 -10 6 -16 2 -21 -11 -9 -23 -21 -25
-37 -6 -14 17 -4 46 16 46 8 0 11 5 8 10 -10 17 -19 11 -43 -26z"/>
<path d="M2700 2508 c0 -15 -70 -68 -90 -68 -15 0 -13 -8 11 -41 11 -16 27
-29 35 -29 10 0 6 8 -12 23 l-26 23 38 26 c22 14 47 30 56 34 14 8 15 11 2 28
-11 16 -14 17 -14 4z"/>
<path d="M301 2301 c-22 -30 -28 -57 -11 -46 10 6 85 -29 95 -45 9 -14 25 -3
25 17 0 9 -3 13 -6 10 -10 -9 -46 12 -39 24 4 5 19 9 34 9 16 0 34 7 41 15 10
12 7 13 -22 9 -26 -5 -38 -1 -52 15 -26 28 -41 26 -65 -8z m57 -19 c4 -24 -9
-28 -39 -11 -17 8 -18 13 -8 25 17 21 43 13 47 -14z"/>
<path d="M2817 2307 c-5 -15 -73 -50 -95 -50 -7 0 -10 -7 -7 -14 3 -8 5 -17 5
-19 0 -3 12 3 28 13 39 27 82 44 93 38 13 -9 10 7 -5 28 -11 14 -15 15 -19 4z"/>
<path d="M2895 2124 c21 -21 11 -30 -50 -45 -27 -7 -51 -14 -53 -15 -1 0 0 -9
4 -18 6 -15 9 -15 23 -3 25 22 99 37 105 22 2 -7 -1 -18 -7 -24 -8 -8 -8 -11
0 -11 7 0 14 4 17 9 9 14 -27 101 -42 101 -10 0 -9 -4 3 -16z"/>
<path d="M209 2073 c-15 -54 -15 -56 -1 -61 6 -2 8 6 5 17 -3 13 -1 21 6 21
28 0 101 -23 101 -32 0 -5 5 -6 10 -3 25 15 6 32 -50 43 -63 13 -70 21 -44 46
13 13 13 16 1 16 -9 0 -20 -19 -28 -47z"/>
<path d="M709 2072 c0 -10 -1 -197 -2 -417 l0 -400 61 -3 62 -3 0 158 0 158
35 24 c43 29 102 50 126 44 28 -8 41 -28 134 -210 l87 -173 59 0 c32 0 59 2
59 5 0 3 -40 86 -90 185 -57 115 -98 183 -112 191 -21 11 -20 13 28 34 86 38
136 117 137 215 0 61 -17 101 -60 142 -57 55 -90 61 -315 64 -188 2 -208 1
-209 -14z m382 -34 c58 -34 91 -93 94 -167 4 -126 -65 -211 -172 -211 -39 0
-134 -39 -165 -67 -17 -15 -18 -4 -18 232 l0 248 109 -5 c93 -4 114 -8 152
-30z"/>
<path d="M1440 2081 c0 -4 9 -34 21 -66 44 -124 241 -701 250 -732 10 -32 11
-33 70 -33 71 0 53 -33 165 297 43 128 81 233 84 233 4 0 136 -377 175 -497
10 -32 11 -33 71 -33 l60 0 68 198 c38 108 99 285 136 392 92 266 89 249 40
247 l-40 -2 -1 -60 c0 -33 -2 -69 -4 -80 -2 -11 -7 -40 -10 -65 -7 -49 -186
-590 -195 -590 -7 0 8 -42 -196 553 -30 89 -62 180 -70 203 l-15 40 -59 2 -59
1 14 -47 c8 -26 29 -86 46 -134 l31 -88 -60 -177 c-33 -98 -75 -220 -93 -272
l-33 -94 -17 49 c-31 90 -220 638 -240 700 l-21 61 -59 0 c-32 0 -59 -3 -59
-6z"/>
<path d="M2950 1885 c-21 -25 -70 -47 -92 -42 -14 4 -18 1 -15 -11 2 -9 10
-15 18 -13 8 2 21 4 29 6 17 3 72 -23 82 -39 5 -6 8 -1 8 12 0 13 -3 21 -7 19
-5 -3 -19 -1 -32 4 -19 7 -21 12 -11 23 6 8 20 16 29 18 13 2 16 8 12 21 -6
18 -8 18 -21 2z"/>
<path d="M164 1855 c-4 -8 -3 -26 0 -40 9 -37 51 -34 71 5 18 35 30 38 44 12
7 -14 6 -25 -5 -40 -8 -12 -11 -22 -5 -22 35 0 31 80 -4 94 -22 8 -32 1 -50
-34 -10 -19 -20 -27 -30 -24 -20 8 -19 41 3 53 16 10 16 10 -1 11 -10 0 -20
-7 -23 -15z"/>
<path d="M196 1664 c-10 -32 10 -206 36 -309 79 -320 251 -582 513 -780 39
-29 129 -85 200 -123 103 -55 153 -75 242 -97 l112 -28 -49 -23 c-49 -23 -103
-72 -94 -86 3 -4 20 -10 40 -14 55 -10 121 14 171 62 43 41 46 42 96 37 29 -3
53 -6 55 -7 1 -2 -7 -13 -18 -26 -40 -46 -56 -165 -27 -204 11 -15 18 -16 34
-8 27 15 72 128 75 191 l3 49 43 4 c24 2 46 0 48 -4 3 -5 0 -8 -6 -8 -20 0
-76 -68 -88 -108 -25 -81 -12 -99 53 -76 56 18 112 85 126 152 13 56 11 55 94
66 22 3 50 9 63 12 l23 7 -21 -53 c-11 -29 -21 -68 -22 -86 -1 -40 30 -114 48
-114 8 0 26 18 41 41 22 33 27 52 27 107 1 37 -3 79 -8 95 -8 26 -6 28 40 48
100 42 220 105 284 147 293 196 499 493 580 837 29 122 45 301 28 311 -12 8
-16 -11 -23 -111 -34 -493 -383 -965 -845 -1143 l-76 -29 -37 43 c-23 26 -63
55 -100 73 -34 16 -73 44 -85 60 -40 54 -76 33 -74 -42 1 -45 21 -95 58 -142
33 -43 33 -45 11 -46 -12 -1 -37 -2 -54 -4 -25 -2 -33 2 -33 14 0 54 -105 191
-145 191 -22 0 -34 -39 -24 -74 12 -42 55 -103 81 -116 19 -9 19 -7 -5 14 -45
41 -82 138 -60 159 8 8 50 -18 76 -47 24 -27 68 -119 60 -126 -3 -3 -10 4 -17
14 -18 31 -77 93 -70 73 3 -9 10 -17 14 -17 8 0 53 -70 48 -75 -2 -2 -19 -7
-39 -13 -46 -12 -87 -5 -94 18 -16 51 -129 131 -206 147 -16 3 -29 10 -29 15
0 6 -20 30 -45 54 -45 45 -81 56 -92 28 -11 -28 25 -119 62 -157 45 -47 45
-57 -1 -22 -65 49 -162 78 -212 61 -39 -13 -176 74 -326 208 -156 140 -273
313 -350 518 -52 140 -72 230 -82 373 -6 90 -17 123 -28 89z m1010 -1096 c40
-36 61 -76 69 -135 l5 -38 -16 30 c-20 37 -54 75 -67 75 -6 0 -1 -8 9 -17 20
-18 54 -68 54 -78 0 -15 -44 21 -70 57 -45 61 -61 138 -30 138 5 0 26 -15 46
-32z m547 4 c23 -25 55 -102 57 -137 4 -54 -1 -61 -14 -23 -16 45 -45 92 -53
84 -3 -2 5 -19 17 -35 11 -17 24 -48 26 -68 5 -37 5 -37 -11 -18 -50 61 -77
152 -59 199 8 21 17 20 37 -2z m148 -103 c60 -47 69 -66 18 -36 -50 30 -59 32
-59 17 0 -5 8 -10 18 -10 10 0 33 -13 52 -30 33 -27 34 -29 12 -30 -13 0 -31
-4 -40 -9 -9 -4 -29 -11 -44 -15 -26 -6 -28 -4 -28 24 0 30 1 31 22 16 12 -9
32 -16 43 -16 15 1 11 6 -16 20 -44 23 -55 36 -64 78 -7 32 -6 33 22 26 15 -4
44 -20 64 -35z m-536 -10 c41 -20 79 -50 105 -84 14 -19 14 -19 -5 -4 -26 21
-106 62 -111 56 -2 -2 18 -16 46 -31 93 -51 72 -64 -27 -17 -42 20 -67 39 -77
60 -30 58 -17 61 69 20z m-261 -9 c69 -26 96 -53 39 -39 -21 5 -51 12 -68 15
-45 8 -85 25 -85 35 0 16 57 10 114 -11z m234 -69 c15 -10 34 -20 42 -23 9 -3
5 -7 -12 -10 -15 -3 -25 -2 -23 2 3 4 -6 11 -20 14 -14 4 -25 13 -25 21 0 19
6 19 38 -4z m-79 -17 c9 -9 -53 7 -63 17 -5 5 5 4 24 -1 18 -5 35 -12 39 -16z
m711 -69 c-4 -19 -6 -35 -4 -35 1 0 -4 -16 -12 -36 -8 -20 -11 -33 -5 -30 9 6
22 40 37 101 l7 30 7 -25 c15 -53 -7 -155 -39 -184 -17 -16 -19 -15 -36 20
-25 54 -15 124 28 192 15 23 25 3 17 -33z m-612 -22 c-38 -40 -134 -71 -175
-56 -23 9 16 50 65 71 62 26 83 30 109 17 l22 -10 -21 -22z m372 19 c0 -5 -22
-32 -49 -60 -28 -29 -45 -52 -40 -52 5 0 32 23 60 51 28 28 52 49 54 47 2 -2
-7 -27 -20 -55 -26 -57 -95 -116 -130 -111 -51 7 6 136 75 170 40 20 50 21 50
10z m-195 -41 c-7 -22 -19 -50 -25 -61 -6 -12 -9 -24 -6 -27 3 -3 19 23 35 58
23 49 30 58 30 38 1 -36 -27 -128 -52 -168 -19 -31 -21 -33 -34 -15 -28 38 -9
149 34 196 26 29 33 21 18 -21z"/>
<path d="M1326 291 c-3 -4 -20 -11 -37 -15 -18 -3 -30 -9 -26 -12 7 -8 75 14
82 27 4 5 2 9 -4 9 -5 0 -12 -4 -15 -9z"/>
</g>
</svg>
